<svg width="153" height="100" viewBox="0 0 153 100" fill="none" xmlns="http://www.w3.org/2000/svg">
<path d="M12.98 83.4699C12.98 81.2039 10.868 79.9059 8.272 79.9059H0.902V80.3899C1.298 80.4119 2.024 80.5219 2.574 80.6979C3.124 80.8739 3.256 81.3359 3.256 81.8199V93.1059C3.256 93.5899 3.102 94.0079 2.574 94.2059C2.288 94.3159 1.386 94.4259 0.99 94.4479V94.9319H8.008V94.4479C7.458 94.4259 6.556 94.3159 6.27 94.2059C5.742 94.0079 5.588 93.5899 5.588 93.1059V88.0459H7.304C10.142 88.0459 12.98 86.4619 12.98 83.4699ZM10.252 84.0199C10.252 85.0539 9.834 87.3859 6.666 87.3859H5.588V80.5219H7.084C9.592 80.5219 10.252 82.3699 10.252 84.0199ZM21.5841 94.9319V94.4479C21.1881 94.4259 20.2421 94.2279 19.9781 94.1179C19.4721 93.8979 19.2961 93.5459 19.2961 93.0619V81.7319C19.2961 81.2479 19.4281 80.8519 19.9781 80.6759C20.3741 80.5439 21.1881 80.4119 21.5841 80.3899V79.9059H14.6761V80.3899C15.0721 80.4119 15.8861 80.6319 16.2821 80.7859C16.8321 81.0059 16.9641 81.3579 16.9641 81.8419V93.1719C16.9641 93.6559 16.8101 94.0299 16.2821 94.2279C15.9961 94.3379 15.0721 94.4259 14.6761 94.4479V94.9319H21.5841ZM40.0036 80.3899V79.9059H33.4476V80.3899C33.9536 80.4119 35.2736 80.7859 35.6916 81.0499C36.1756 81.3579 36.4396 82.4359 36.4396 84.0199V91.4779L27.2436 79.9059H22.7116V80.3899C23.3056 80.4119 24.5376 80.9399 25.0656 81.3579C25.5056 81.7099 25.7696 82.4579 25.7696 83.0959V90.8399C25.7696 92.5559 25.5716 93.4799 25.0436 93.8539C24.8016 94.0299 23.3936 94.4259 22.9976 94.4479V94.9319H29.5976V94.4479C29.2016 94.4259 27.7056 94.0519 27.3316 93.7439C26.8476 93.3479 26.5836 92.4019 26.5836 90.7299V82.6779L36.4396 95.0859H37.2536V83.8879C37.2536 82.4359 37.3856 81.3139 37.9796 80.9399C38.3316 80.7199 39.6076 80.4119 40.0036 80.3899ZM56.1105 87.3199C56.1105 85.1639 55.3185 83.1399 54.0205 81.8419C52.3705 80.2359 50.5005 79.5539 48.4325 79.5539C46.2985 79.5539 44.3625 80.3239 42.8665 81.8419C41.4365 83.2719 40.7325 85.1859 40.7325 87.5839C40.7325 89.9819 41.6345 91.8519 43.0865 93.2159C44.5165 94.5579 46.3425 95.2839 48.3445 95.2839C50.6105 95.2839 52.3925 94.4919 53.8225 93.1719C55.4285 91.6099 56.1105 89.6079 56.1105 87.3199ZM53.4485 87.3859C53.4485 91.4779 51.8425 94.6019 48.4325 94.6019C45.0005 94.6019 43.3945 91.3899 43.3945 87.4739C43.3945 82.9199 45.3085 80.2359 48.4325 80.2359C52.0845 80.2359 53.4485 83.7999 53.4485 87.3859ZM79.8863 94.9319V94.4479C79.4903 94.4259 78.6103 94.2499 78.3463 94.1179C77.8403 93.8759 77.6643 93.5239 77.6643 93.0399V81.7539C77.6643 81.2699 77.7963 80.8519 78.3463 80.6759C78.7423 80.5439 79.4903 80.4119 79.8863 80.3899V79.9059H73.0663V80.3899C73.4623 80.4119 74.2763 80.6319 74.6503 80.7859C75.1563 81.0059 75.3323 81.3799 75.3323 81.8639V86.7479H67.7423V81.7539C67.7423 81.2699 67.8743 80.8519 68.4243 80.6759C68.8203 80.5439 69.6123 80.4119 70.0083 80.3899V79.9059H63.1883V80.3899C63.5843 80.4119 64.3543 80.6319 64.7283 80.7859C65.2563 81.0059 65.4103 81.3799 65.4103 81.8639V93.1499C65.4103 93.6339 65.2563 94.0299 64.7283 94.2279C64.4423 94.3379 63.5843 94.4259 63.1883 94.4479V94.9319H70.0083V94.4479C69.6123 94.4259 68.6883 94.2279 68.4243 94.1179C67.9183 93.8979 67.7423 93.5239 67.7423 93.0399V87.4739H75.3323V93.1499C75.3323 93.6339 75.1783 94.0299 74.6503 94.2279C74.3643 94.3379 73.4623 94.4259 73.0663 94.4479V94.9319H79.8863ZM97.1242 87.3199C97.1242 85.1639 96.3322 83.1399 95.0342 81.8419C93.3842 80.2359 91.5142 79.5539 89.4462 79.5539C87.3122 79.5539 85.3762 80.3239 83.8802 81.8419C82.4502 83.2719 81.7462 85.1859 81.7462 87.5839C81.7462 89.9819 82.6482 91.8519 84.1002 93.2159C85.5302 94.5579 87.3562 95.2839 89.3582 95.2839C91.6242 95.2839 93.4062 94.4919 94.8362 93.1719C96.4422 91.6099 97.1242 89.6079 97.1242 87.3199ZM94.4622 87.3859C94.4622 91.4779 92.8562 94.6019 89.4462 94.6019C86.0142 94.6019 84.4082 91.3899 84.4082 87.4739C84.4082 82.9199 86.3222 80.2359 89.4462 80.2359C93.0982 80.2359 94.4622 83.7999 94.4622 87.3859ZM111.917 83.7339V79.9059H98.1448V83.7339H98.6728C98.9148 82.7659 100.103 80.7199 101.049 80.5879C101.577 80.5219 102.347 80.4999 102.831 80.4999H103.865V93.0839C103.865 93.5679 103.711 93.9859 103.183 94.1839C102.897 94.2939 101.775 94.4259 101.379 94.4479V94.9319H108.683V94.4479C108.287 94.4259 107.143 94.1839 106.879 94.0739C106.373 93.8539 106.197 93.4579 106.197 92.9739V80.4999H107.231C107.825 80.4999 108.485 80.5219 109.013 80.5879C109.959 80.7199 111.147 82.7659 111.389 83.7339H111.917ZM126.23 90.7079H125.68C125.46 91.3679 124.558 93.1059 123.898 93.7879C123.37 94.3379 121.83 94.2939 120.29 94.2939C118.068 94.2939 117.672 94.0959 117.672 92.2919V87.4519H119.586C120.774 87.4519 121.148 87.8259 121.434 88.1339C121.698 88.4199 122.072 89.6299 122.116 90.2679H122.71V84.1299H122.116C122.05 84.7019 121.764 85.8239 121.434 86.1539C121.17 86.4179 120.818 86.8359 119.586 86.8359H117.672V80.4999H120.268C120.972 80.4999 121.566 80.5219 122.094 80.5879C123.04 80.7199 124.206 82.3479 124.448 83.3159H125.042V79.9059H112.92V80.3899C113.316 80.4119 114.24 80.6099 114.658 80.7859C115.208 81.0059 115.34 81.3799 115.34 81.8639V93.1059C115.34 93.6119 115.186 93.9859 114.658 94.1839C114.328 94.3159 113.316 94.4259 112.92 94.4479V94.9319H125.944L126.23 90.7079ZM140.618 90.6639H140.09C139.87 91.4119 138.748 93.1499 138.176 93.7659C137.736 94.2279 136.218 94.3379 134.942 94.3379C132.566 94.3379 132.324 94.1839 132.324 92.3139V81.7979C132.324 81.3139 132.456 80.8739 133.006 80.6979C133.402 80.5659 134.216 80.4119 134.612 80.3899V79.9059H127.726V80.3899C128.122 80.4119 128.914 80.6319 129.31 80.8079C129.86 81.0499 129.992 81.4239 129.992 81.9079V93.1059C129.992 93.5899 129.838 94.0079 129.31 94.2059C129.024 94.3159 128.122 94.4259 127.726 94.4479V94.9319H140.288L140.618 90.6639ZM151.792 90.6419C151.792 88.3099 150.582 87.4299 148.69 86.5719C147.7 86.0879 146.776 85.8899 145.698 85.2959C144.488 84.6359 143.762 83.8659 143.762 82.5239C143.762 80.8079 145.214 80.2799 145.852 80.2799C148.8 80.2799 149.79 82.1939 150.67 84.6799H151.154L151.044 79.6859H150.296L149.548 80.7199C148.778 80.1259 147.524 79.6199 146.38 79.6199C143.872 79.6199 141.98 81.3579 141.98 83.6899C141.98 85.6479 142.882 86.8579 144.576 87.6059C145.808 88.1559 146.468 88.3979 147.722 88.9039C149.042 89.4319 149.878 90.4439 149.878 91.7859C149.878 93.4359 149.042 94.5579 147.084 94.5579C144.356 94.5579 142.948 92.3359 142.046 90.0039H141.54L141.694 95.1519H142.442L143.212 94.1179C143.872 94.6459 145.038 95.2179 146.82 95.2179C149.658 95.2179 151.792 93.3259 151.792 90.6419Z" fill="white"/>
<path d="M80.6662 1.99879C79.2103 0.719004 77.2347 0 75.1758 0C73.1161 0 71.1413 0.719004 69.6854 1.99879L45.3094 23.4231L42.8889 25.5513L30.4678 36.4683L2 61.4891C9.60217 66.3748 18.5515 69.3874 27.9222 70.2137C37.293 71.0408 46.7449 69.6527 55.3005 66.1924C56.3162 65.7806 57.4357 65.6079 58.5505 65.6908C59.6644 65.7744 60.7351 66.1116 61.6565 66.6685C66.3128 69.4834 71.9369 70.7914 77.568 70.3699C83.1992 69.9484 88.4899 67.8231 92.5378 64.3565C93.607 63.4438 95.0031 62.8841 96.4882 62.7743C97.974 62.6644 99.4566 63.0099 100.685 63.7526C108.015 68.1899 116.727 70.5281 125.627 70.4452C134.527 70.3623 143.18 67.8638 150.402 63.2911L80.6662 1.99879ZM74.6011 53.521C74.6011 53.7774 74.4848 54.0233 74.2788 54.2051C74.0721 54.3861 73.7922 54.4884 73.5005 54.4884H64.5566C64.2649 54.4884 63.9851 54.3861 63.7783 54.2051C63.5715 54.0233 63.456 53.7774 63.456 53.521V45.6601C63.456 45.4037 63.5715 45.1577 63.7783 44.976C63.9851 44.795 64.2649 44.6927 64.5566 44.6927H73.5005C73.7922 44.6927 74.0721 44.795 74.2788 44.976C74.4848 45.1577 74.6011 45.4037 74.6011 45.6601V53.521ZM74.6011 41.6159C74.6011 41.8723 74.4848 42.1182 74.2788 42.3C74.0721 42.4817 73.7922 42.5832 73.5005 42.5832H64.5566C64.2649 42.5832 63.9851 42.4817 63.7783 42.3C63.5715 42.1182 63.456 41.8723 63.456 41.6159V33.755C63.456 33.4986 63.5715 33.2526 63.7783 33.0709C63.9851 32.8899 64.2649 32.7876 64.5566 32.7876H73.5005C73.7922 32.7876 74.0721 32.8899 74.2788 33.0709C74.4848 33.2526 74.6011 33.4986 74.6011 33.755V41.6159ZM88.9459 53.521C88.9459 53.7774 88.8296 54.0233 88.6236 54.2051C88.4168 54.3861 88.137 54.4884 87.8453 54.4884H78.9013C78.6097 54.4884 78.3298 54.3861 78.1231 54.2051C77.9163 54.0233 77.8008 53.7774 77.8008 53.521V45.6601C77.8008 45.4037 77.9163 45.1577 78.1231 44.976C78.3298 44.795 78.6097 44.6927 78.9013 44.6927H87.8453C88.137 44.6927 88.4168 44.795 88.6236 44.976C88.8296 45.1577 88.9459 45.4037 88.9459 45.6601V53.521ZM88.9459 41.6159C88.9459 41.8723 88.8296 42.1182 88.6236 42.3C88.4168 42.4817 88.137 42.5832 87.8453 42.5832H78.9013C78.6097 42.5832 78.3298 42.4817 78.1231 42.3C77.9163 42.1182 77.8008 41.8723 77.8008 41.6159V33.755C77.8008 33.4986 77.9163 33.2526 78.1231 33.0709C78.3298 32.8899 78.6097 32.7876 78.9013 32.7876H87.8453C88.137 32.7876 88.4168 32.8899 88.6236 33.0709C88.8296 33.2526 88.9459 33.4986 88.9459 33.755V41.6159Z" fill="white"/>
</svg>
