<svg width="111" height="75" viewBox="0 0 111 75" fill="none" xmlns="http://www.w3.org/2000/svg">
<path d="M9.44 61.7504C9.44 60.1024 7.904 59.1584 6.016 59.1584H0.656V59.5104C0.944 59.5264 1.472 59.6064 1.872 59.7344C2.272 59.8624 2.368 60.1984 2.368 60.5504V68.7584C2.368 69.1104 2.256 69.4144 1.872 69.5584C1.664 69.6384 1.008 69.7184 0.72 69.7344V70.0864H5.824V69.7344C5.424 69.7184 4.768 69.6384 4.56 69.5584C4.176 69.4144 4.064 69.1104 4.064 68.7584V65.0784H5.312C7.376 65.0784 9.44 63.9264 9.44 61.7504ZM7.456 62.1504C7.456 62.9024 7.152 64.5984 4.848 64.5984H4.064V59.6064H5.152C6.976 59.6064 7.456 60.9504 7.456 62.1504ZM15.6975 70.0864V69.7344C15.4095 69.7184 14.7215 69.5744 14.5295 69.4944C14.1615 69.3344 14.0335 69.0784 14.0335 68.7264V60.4864C14.0335 60.1344 14.1295 59.8464 14.5295 59.7184C14.8175 59.6224 15.4095 59.5264 15.6975 59.5104V59.1584H10.6735V59.5104C10.9615 59.5264 11.5535 59.6864 11.8415 59.7984C12.2415 59.9584 12.3375 60.2144 12.3375 60.5664V68.8064C12.3375 69.1584 12.2255 69.4304 11.8415 69.5744C11.6335 69.6544 10.9615 69.7184 10.6735 69.7344V70.0864H15.6975ZM29.0935 59.5104V59.1584H24.3255V59.5104C24.6935 59.5264 25.6535 59.7984 25.9575 59.9904C26.3095 60.2144 26.5015 60.9984 26.5015 62.1504V67.5744L19.8135 59.1584H16.5175V59.5104C16.9495 59.5264 17.8455 59.9104 18.2295 60.2144C18.5495 60.4704 18.7415 61.0144 18.7415 61.4784V67.1104C18.7415 68.3584 18.5975 69.0304 18.2135 69.3024C18.0375 69.4304 17.0135 69.7184 16.7255 69.7344V70.0864H21.5255V69.7344C21.2375 69.7184 20.1495 69.4464 19.8775 69.2224C19.5255 68.9344 19.3335 68.2464 19.3335 67.0304V61.1744L26.5015 70.1984H27.0935V62.0544C27.0935 60.9984 27.1895 60.1824 27.6215 59.9104C27.8775 59.7504 28.8055 59.5264 29.0935 59.5104ZM40.8076 64.5504C40.8076 62.9824 40.2316 61.5104 39.2876 60.5664C38.0876 59.3984 36.7276 58.9024 35.2236 58.9024C33.6716 58.9024 32.2636 59.4624 31.1756 60.5664C30.1356 61.6064 29.6236 62.9984 29.6236 64.7424C29.6236 66.4864 30.2796 67.8464 31.3356 68.8384C32.3756 69.8144 33.7036 70.3424 35.1596 70.3424C36.8076 70.3424 38.1036 69.7664 39.1436 68.8064C40.3116 67.6704 40.8076 66.2144 40.8076 64.5504ZM38.8716 64.5984C38.8716 67.5744 37.7036 69.8464 35.2236 69.8464C32.7276 69.8464 31.5596 67.5104 31.5596 64.6624C31.5596 61.3504 32.9516 59.3984 35.2236 59.3984C37.8796 59.3984 38.8716 61.9904 38.8716 64.5984ZM58.0991 70.0864V69.7344C57.8111 69.7184 57.1711 69.5904 56.9791 69.4944C56.6111 69.3184 56.4831 69.0624 56.4831 68.7104V60.5024C56.4831 60.1504 56.5791 59.8464 56.9791 59.7184C57.2671 59.6224 57.8111 59.5264 58.0991 59.5104V59.1584H53.1391V59.5104C53.4271 59.5264 54.0191 59.6864 54.2911 59.7984C54.6591 59.9584 54.7871 60.2304 54.7871 60.5824V64.1344H49.2671V60.5024C49.2671 60.1504 49.3631 59.8464 49.7631 59.7184C50.0511 59.6224 50.6271 59.5264 50.9151 59.5104V59.1584H45.9551V59.5104C46.2431 59.5264 46.8031 59.6864 47.0751 59.7984C47.4591 59.9584 47.5711 60.2304 47.5711 60.5824V68.7904C47.5711 69.1424 47.4591 69.4304 47.0751 69.5744C46.8671 69.6544 46.2431 69.7184 45.9551 69.7344V70.0864H50.9151V69.7344C50.6271 69.7184 49.9551 69.5744 49.7631 69.4944C49.3951 69.3344 49.2671 69.0624 49.2671 68.7104V64.6624H54.7871V68.7904C54.7871 69.1424 54.6751 69.4304 54.2911 69.5744C54.0831 69.6544 53.4271 69.7184 53.1391 69.7344V70.0864H58.0991ZM70.6358 64.5504C70.6358 62.9824 70.0598 61.5104 69.1158 60.5664C67.9158 59.3984 66.5558 58.9024 65.0518 58.9024C63.4998 58.9024 62.0918 59.4624 61.0038 60.5664C59.9638 61.6064 59.4518 62.9984 59.4518 64.7424C59.4518 66.4864 60.1078 67.8464 61.1638 68.8384C62.2038 69.8144 63.5318 70.3424 64.9878 70.3424C66.6358 70.3424 67.9318 69.7664 68.9718 68.8064C70.1398 67.6704 70.6358 66.2144 70.6358 64.5504ZM68.6998 64.5984C68.6998 67.5744 67.5318 69.8464 65.0518 69.8464C62.5558 69.8464 61.3878 67.5104 61.3878 64.6624C61.3878 61.3504 62.7798 59.3984 65.0518 59.3984C67.7078 59.3984 68.6998 61.9904 68.6998 64.5984ZM81.394 61.9424V59.1584H71.378V61.9424H71.762C71.938 61.2384 72.802 59.7504 73.49 59.6544C73.874 59.6064 74.434 59.5904 74.786 59.5904H75.538V68.7424C75.538 69.0944 75.426 69.3984 75.042 69.5424C74.834 69.6224 74.018 69.7184 73.73 69.7344V70.0864H79.042V69.7344C78.754 69.7184 77.922 69.5424 77.73 69.4624C77.362 69.3024 77.234 69.0144 77.234 68.6624V59.5904H77.986C78.418 59.5904 78.898 59.6064 79.282 59.6544C79.97 59.7504 80.834 61.2384 81.01 61.9424H81.394ZM91.8036 67.0144H91.4036C91.2436 67.4944 90.5876 68.7584 90.1076 69.2544C89.7236 69.6544 88.6036 69.6224 87.4836 69.6224C85.8676 69.6224 85.5796 69.4784 85.5796 68.1664V64.6464H86.9716C87.8356 64.6464 88.1076 64.9184 88.3156 65.1424C88.5076 65.3504 88.7796 66.2304 88.8116 66.6944H89.2436V62.2304H88.8116C88.7636 62.6464 88.5556 63.4624 88.3156 63.7024C88.1236 63.8944 87.8676 64.1984 86.9716 64.1984H85.5796V59.5904H87.4676C87.9796 59.5904 88.4116 59.6064 88.7956 59.6544C89.4836 59.7504 90.3316 60.9344 90.5076 61.6384H90.9396V59.1584H82.1236V59.5104C82.4116 59.5264 83.0836 59.6704 83.3876 59.7984C83.7876 59.9584 83.8836 60.2304 83.8836 60.5824V68.7584C83.8836 69.1264 83.7716 69.3984 83.3876 69.5424C83.1476 69.6384 82.4116 69.7184 82.1236 69.7344V70.0864H91.5956L91.8036 67.0144ZM102.268 66.9824H101.884C101.724 67.5264 100.908 68.7904 100.492 69.2384C100.172 69.5744 99.0679 69.6544 98.1399 69.6544C96.4119 69.6544 96.2359 69.5424 96.2359 68.1824V60.5344C96.2359 60.1824 96.3319 59.8624 96.7319 59.7344C97.0199 59.6384 97.6119 59.5264 97.8999 59.5104V59.1584H92.8919V59.5104C93.1799 59.5264 93.7559 59.6864 94.0439 59.8144C94.4439 59.9904 94.5399 60.2624 94.5399 60.6144V68.7584C94.5399 69.1104 94.4279 69.4144 94.0439 69.5584C93.8359 69.6384 93.1799 69.7184 92.8919 69.7344V70.0864H102.028L102.268 66.9824ZM110.394 66.9664C110.394 65.2704 109.514 64.6304 108.138 64.0064C107.418 63.6544 106.746 63.5104 105.962 63.0784C105.082 62.5984 104.554 62.0384 104.554 61.0624C104.554 59.8144 105.61 59.4304 106.074 59.4304C108.218 59.4304 108.938 60.8224 109.578 62.6304H109.93L109.85 58.9984H109.306L108.762 59.7504C108.202 59.3184 107.29 58.9504 106.458 58.9504C104.634 58.9504 103.258 60.2144 103.258 61.9104C103.258 63.3344 103.914 64.2144 105.146 64.7584C106.042 65.1584 106.522 65.3344 107.434 65.7024C108.394 66.0864 109.002 66.8224 109.002 67.7984C109.002 68.9984 108.394 69.8144 106.97 69.8144C104.986 69.8144 103.962 68.1984 103.306 66.5024H102.938L103.05 70.2464H103.594L104.154 69.4944C104.634 69.8784 105.482 70.2944 106.778 70.2944C108.842 70.2944 110.394 68.9184 110.394 66.9664Z" fill="#262F56"/>
<path d="M58.6141 1.48929C57.5292 0.535729 56.0572 0 54.5232 0C52.9885 0 51.5171 0.535729 50.4323 1.48929L32.2698 17.4525L30.4662 19.0382L21.2113 27.1725L0 45.8154C5.66436 49.4557 12.3325 51.7004 19.3146 52.3161C26.2967 52.9324 33.3394 51.8981 39.7141 49.3198C40.4709 49.013 41.305 48.8843 42.1356 48.9461C42.9656 49.0084 43.7634 49.2596 44.4499 49.6745C47.9194 51.7719 52.1098 52.7465 56.3056 52.4325C60.5014 52.1184 64.4435 50.5348 67.4595 47.9519C68.2562 47.2718 69.2965 46.8548 70.4029 46.773C71.51 46.6911 72.6147 46.9485 73.5297 47.502C78.9913 50.8082 85.4826 52.5504 92.1139 52.4886C98.7452 52.4268 105.193 50.5652 110.574 47.1581L58.6141 1.48929ZM54.095 39.8784C54.095 40.0694 54.0083 40.2527 53.8548 40.3881C53.7008 40.523 53.4922 40.5992 53.2749 40.5992H46.6108C46.3935 40.5992 46.1849 40.523 46.0309 40.3881C45.8768 40.2527 45.7907 40.0694 45.7907 39.8784V34.0212C45.7907 33.8302 45.8768 33.6469 46.0309 33.5115C46.1849 33.3767 46.3935 33.3005 46.6108 33.3005H53.2749C53.4922 33.3005 53.7008 33.3767 53.8548 33.5115C54.0083 33.6469 54.095 33.8302 54.095 34.0212V39.8784ZM54.095 31.0079C54.095 31.1989 54.0083 31.3822 53.8548 31.5176C53.7008 31.653 53.4922 31.7287 53.2749 31.7287H46.6108C46.3935 31.7287 46.1849 31.653 46.0309 31.5176C45.8768 31.3822 45.7907 31.1989 45.7907 31.0079V25.1508C45.7907 24.9598 45.8768 24.7765 46.0309 24.6411C46.1849 24.5062 46.3935 24.43 46.6108 24.43H53.2749C53.4922 24.43 53.7008 24.5062 53.8548 24.6411C54.0083 24.7765 54.095 24.9598 54.095 25.1508V31.0079ZM64.7832 39.8784C64.7832 40.0694 64.6965 40.2527 64.5431 40.3881C64.389 40.523 64.1805 40.5992 63.9632 40.5992H57.299C57.0817 40.5992 56.8732 40.523 56.7191 40.3881C56.5651 40.2527 56.479 40.0694 56.479 39.8784V34.0212C56.479 33.8302 56.5651 33.6469 56.7191 33.5115C56.8732 33.3767 57.0817 33.3005 57.299 33.3005H63.9632C64.1805 33.3005 64.389 33.3767 64.5431 33.5115C64.6965 33.6469 64.7832 33.8302 64.7832 34.0212V39.8784ZM64.7832 31.0079C64.7832 31.1989 64.6965 31.3822 64.5431 31.5176C64.389 31.653 64.1805 31.7287 63.9632 31.7287H57.299C57.0817 31.7287 56.8732 31.653 56.7191 31.5176C56.5651 31.3822 56.479 31.1989 56.479 31.0079V25.1508C56.479 24.9598 56.5651 24.7765 56.7191 24.6411C56.8732 24.5062 57.0817 24.43 57.299 24.43H63.9632C64.1805 24.43 64.389 24.5062 64.5431 24.6411C64.6965 24.7765 64.7832 24.9598 64.7832 25.1508V31.0079Z" fill="#262F56"/>
</svg>
